<svg xmlns="http://www.w3.org/2000/svg" width="286.054" height="286.045" viewBox="0 0 286.054 286.045">
  <g id="delete" transform="translate(0 -0.004)">
    <path id="Path_13" data-name="Path 13" d="M168.352,142.924l25.28-25.28a8.93,8.93,0,0,0,0-12.64l-12.64-12.649a8.938,8.938,0,0,0-12.64,0l-25.289,25.289L117.792,92.373a8.951,8.951,0,0,0-12.658-.018L92.494,105a8.932,8.932,0,0,0,.018,12.649l25.271,25.271L92.556,168.15a8.93,8.93,0,0,0,0,12.64l12.64,12.649a8.938,8.938,0,0,0,12.64,0l25.226-25.226,25.4,25.414a8.943,8.943,0,0,0,12.658.009L193.765,181a8.951,8.951,0,0,0-.009-12.658ZM143.027,0A143.023,143.023,0,1,0,286.054,143.022,143.02,143.02,0,0,0,143.027,0Zm0,259.228a116.209,116.209,0,1,1,116.209-116.21A116.206,116.206,0,0,1,143.027,259.232Z" fill="#fc2256"/>
  </g>
</svg>
